<svg width="24" height="24" viewBox="0 0 24 24" fill="none" xmlns="http://www.w3.org/2000/svg">
<path d="M9.14737 14.1053H8.70526C7.11431 14.0655 5.57213 14.6562 4.41475 15.7485C3.25737 16.8408 2.57859 18.3463 2.52631 19.9369C2.51068 20.0979 2.51068 20.26 2.52631 20.4211H10.1684C9.3064 19.1861 8.84351 17.7166 8.8421 16.2105C8.84535 15.498 8.9481 14.7894 9.14737 14.1053ZM10.3789 11.7158C11.0665 10.8227 11.9497 10.0992 12.9607 9.60104C13.9717 9.10285 15.0835 8.84322 16.2105 8.84212C16.4069 8.83137 16.6037 8.83137 16.8 8.84212C17.1 8.18052 17.2578 7.4633 17.2632 6.73686C17.2684 5.76479 17.0043 4.81026 16.5002 3.97911C15.9961 3.14796 15.2716 2.47265 14.4072 2.02807C13.5427 1.58349 12.572 1.38701 11.6027 1.4604C10.6334 1.53379 9.70335 1.87419 8.91569 2.44387C8.12802 3.01354 7.51351 3.79022 7.14029 4.6878C6.76707 5.58538 6.64972 6.56879 6.80126 7.52899C6.95279 8.48919 7.36729 9.38866 7.99879 10.1277C8.63029 10.8667 9.45412 11.4164 10.3789 11.7158Z" fill="white" stroke="white"/>
<path d="M16.2105 9.89478C14.9614 9.89478 13.7403 10.2652 12.7017 10.9592C11.663 11.6532 10.8535 12.6396 10.3755 13.7936C9.89748 14.9477 9.77241 16.2176 10.0161 17.4427C10.2598 18.6679 10.8613 19.7932 11.7446 20.6765C12.6279 21.5598 13.7532 22.1613 14.9784 22.405C16.2035 22.6487 17.4734 22.5236 18.6275 22.0456C19.7815 21.5676 20.7679 20.7581 21.4619 19.7194C22.1559 18.6808 22.5263 17.4597 22.5263 16.2106C22.5263 14.5355 21.8609 12.9291 20.6765 11.7446C19.492 10.5602 17.8856 9.89478 16.2105 9.89478ZM16.2105 21.2632C15.3583 21.2682 14.5186 21.0575 13.7696 20.6508C13.0207 20.244 12.3867 19.6544 11.9269 18.9368C11.467 18.2192 11.1962 17.397 11.1395 16.5466C11.0828 15.6962 11.2422 14.8453 11.6028 14.073C11.9634 13.3008 12.5135 12.6323 13.2018 12.1297C13.8902 11.6272 14.6945 11.307 15.5399 11.1989C16.3853 11.0907 17.2443 11.1982 18.037 11.5113C18.8297 11.8244 19.5303 12.3329 20.0737 12.9895L15.8632 17.2527L13.7579 14.9264L12.7053 15.9158L15.8632 19.379L20.9263 14.2737C21.1665 14.8905 21.281 15.549 21.2632 16.2106C21.2632 17.5506 20.7308 18.8358 19.7833 19.7833C18.8357 20.7309 17.5506 21.2632 16.2105 21.2632Z" fill="white" stroke="white"/>
</svg>
