<svg width="24" height="24" viewBox="0 0 24 24" fill="none" xmlns="http://www.w3.org/2000/svg">
<path d="M21.6 9.84002C21.4315 9.57519 21.2908 9.2937 21.18 9.00002C21.0834 8.69824 21.023 8.38606 21 8.07002C20.9869 7.30525 20.7656 6.55851 20.36 5.91002C19.864 5.32197 19.2177 4.87958 18.49 4.63002C18.193 4.51541 17.9083 4.37136 17.64 4.20002C17.4073 3.9997 17.1931 3.7788 17 3.54002C16.5406 2.91628 15.9176 2.43176 15.2 2.14002C14.4734 1.96833 13.7142 1.99248 13 2.21002C12.362 2.35995 11.698 2.35995 11.06 2.21002C10.3333 1.98523 9.55933 1.96104 8.82 2.14002C8.09507 2.42857 7.46485 2.91336 7 3.54002C6.8006 3.77969 6.57968 4.00062 6.34 4.20002C6.07173 4.37136 5.78698 4.51541 5.49 4.63002C4.75869 4.87797 4.10875 5.32048 3.61 5.91002C3.21495 6.56155 3.00413 7.30809 3 8.07002C2.97705 8.38606 2.91663 8.69824 2.82 9.00002C2.70798 9.2868 2.56727 9.56153 2.4 9.82002C1.94913 10.4628 1.68284 11.2167 1.63 12C1.68642 12.7764 1.95255 13.523 2.4 14.16C2.57112 14.4163 2.71206 14.6914 2.82 14.98C2.90701 15.2897 2.95736 15.6086 2.97 15.93C2.98215 16.6949 3.20348 17.4419 3.61 18.09C4.106 18.6781 4.75231 19.1205 5.48 19.37C5.77698 19.4846 6.06173 19.6287 6.33 19.8C6.56968 19.9994 6.7906 20.2203 6.99 20.46C7.44634 21.0867 8.07024 21.572 8.79 21.86C9.07204 21.9459 9.36519 21.9897 9.66 21.99C10.1116 21.9756 10.5606 21.9153 11 21.81C11.6369 21.6508 12.3031 21.6508 12.94 21.81C13.6685 22.0262 14.441 22.0469 15.18 21.87C15.8998 21.582 16.5237 21.0967 16.98 20.47C17.1794 20.2303 17.4003 20.0094 17.64 19.81C17.9083 19.6387 18.193 19.4946 18.49 19.38C19.2177 19.1305 19.864 18.6881 20.36 18.1C20.7665 17.4519 20.9879 16.7049 21 15.94C21.0127 15.6186 21.063 15.2997 21.15 14.99C21.262 14.7032 21.4027 14.4285 21.57 14.17C22.0298 13.5333 22.3065 12.7828 22.37 12C22.3136 11.2236 22.0475 10.477 21.6 9.84002ZM16.71 10.71L11.71 15.71C11.617 15.8037 11.5064 15.8781 11.3846 15.9289C11.2627 15.9797 11.132 16.0058 11 16.0058C10.868 16.0058 10.7373 15.9797 10.6154 15.9289C10.4936 15.8781 10.383 15.8037 10.29 15.71L7.29 12.71C7.19677 12.6168 7.12281 12.5061 7.07235 12.3843C7.02188 12.2624 6.99591 12.1319 6.99591 12C6.99591 11.7337 7.1017 11.4783 7.29 11.29C7.47831 11.1017 7.7337 10.9959 8 10.9959C8.26631 10.9959 8.5217 11.1017 8.71 11.29L11 13.59L15.29 9.29002C15.4783 9.10172 15.7337 8.99593 16 8.99593C16.2663 8.99593 16.5217 9.10172 16.71 9.29002C16.8983 9.47832 17.0041 9.73372 17.0041 10C17.0041 10.2663 16.8983 10.5217 16.71 10.71Z" fill="white"/>
</svg>
