<svg width="1440" height="500" viewBox="0 0 1440 500" fill="none" xmlns="http://www.w3.org/2000/svg" preserveAspectRatio="none">
<path d="M0 400.015L34.4 403.083C68.8 406.15 137.6 412.285 206.08 433.145C274.72 454.005 342.88 489.589 411.52 497.933C480 506.399 548.8 487.503 617.28 465.907C685.92 444.188 754.08 419.648 822.72 411.672C891.2 403.696 960 412.285 1028.48 422.47C1097.12 432.777 1165.28 444.557 1233.92 449.71C1302.4 454.864 1371.2 453.146 1405.6 452.41L1440 451.551V0H1405.6C1371.2 0 1302.4 0 1233.92 0C1165.28 0 1097.12 0 1028.48 0C960 0 891.2 0 822.72 0C754.08 0 685.92 0 617.28 0C548.8 0 480 0 411.52 0C342.88 0 274.72 0 206.08 0C137.6 0 68.8 0 34.4 0H0V400.015Z" fill="#004CBB"/>
<path d="M0 370.566L34.4 373.634C68.8 376.701 137.6 382.836 206.08 377.683C274.72 372.652 342.88 356.21 411.52 330.933C480 305.533 548.8 271.176 617.28 270.93C685.92 270.808 754.08 304.674 822.72 329.828C891.2 354.983 960 371.425 1028.48 372.161C1097.12 373.02 1165.28 358.296 1233.92 336.209C1302.4 314.122 1371.2 284.673 1405.6 269.949L1440 255.224V0H1405.6C1371.2 0 1302.4 0 1233.92 0C1165.28 0 1097.12 0 1028.48 0C960 0 891.2 0 822.72 0C754.08 0 685.92 0 617.28 0C548.8 0 480 0 411.52 0C342.88 0 274.72 0 206.08 0C137.6 0 68.8 0 34.4 0H0V370.566Z" fill="#052890"/>
<path d="M0 245.408L34.4 234.733C68.8 224.18 137.6 202.83 206.08 189.823C274.72 176.694 342.88 171.786 411.52 179.148C480 186.51 548.8 206.143 617.28 219.027C685.92 231.911 754.08 238.046 822.72 219.886C891.2 201.603 960 159.147 1028.48 146.999C1097.12 134.974 1165.28 153.38 1233.92 158.534C1302.4 163.564 1371.2 155.466 1405.6 151.294L1440 147.245V0H1405.6C1371.2 0 1302.4 0 1233.92 0C1165.28 0 1097.12 0 1028.48 0C960 0 891.2 0 822.72 0C754.08 0 685.92 0 617.28 0C548.8 0 480 0 411.52 0C342.88 0 274.72 0 206.08 0C137.6 0 68.8 0 34.4 0H0V245.408Z" fill="#000066"/>
</svg>
