<svg width="1440" height="300" viewBox="0 0 1440 300" fill="none" xmlns="http://www.w3.org/2000/svg" preserveAspectRatio="none">
<path d="M0 22.2346L34.4 15.6664C68.8 9.01899 137.6 -4.11749 206.08 1.26372C274.72 6.64493 342.88 30.7021 411.52 28.3281C480 25.954 548.8 -2.85132 617.28 2.60902C685.92 7.99023 754.08 47.558 822.72 58.0038C891.2 68.3706 960 49.6946 1028.48 44.7882C1097.12 39.8818 1165.28 48.9033 1233.92 46.1335C1302.4 43.3638 1371.2 28.8029 1405.6 21.6015L1440 14.3211V300H1405.6C1371.2 300 1302.4 300 1233.92 300C1165.28 300 1097.12 300 1028.48 300C960 300 891.2 300 822.72 300C754.08 300 685.92 300 617.28 300C548.8 300 480 300 411.52 300C342.88 300 274.72 300 206.08 300C137.6 300 68.8 300 34.4 300H0V22.2346Z" fill="#FF827C"/>
<path d="M0 79.2121L34.4 76.6798C68.8 74.2266 137.6 69.1619 206.08 79.4495C274.72 89.7371 342.88 115.377 411.52 123.686C480 131.995 548.8 122.974 617.28 111.499C685.92 100.025 754.08 86.0969 822.72 87.284C891.2 88.471 960 104.773 1028.48 102.557C1097.12 100.341 1165.28 79.4495 1233.92 65.6008C1302.4 51.7521 1371.2 44.9465 1405.6 41.4645L1440 38.0617V300H1405.6C1371.2 300 1302.4 300 1233.92 300C1165.28 300 1097.12 300 1028.48 300C960 300 891.2 300 822.72 300C754.08 300 685.92 300 617.28 300C548.8 300 480 300 411.52 300C342.88 300 274.72 300 206.08 300C137.6 300 68.8 300 34.4 300H0V79.2121Z" fill="#FF3E3E"/>
<path d="M0 219.282L34.4 216.354C68.8 213.505 137.6 207.649 206.08 202.109C274.72 196.57 342.88 191.347 411.52 184.462C480 177.577 548.8 169.189 617.28 164.124C685.92 159.139 754.08 157.556 822.72 166.498C891.2 175.52 960 194.987 1028.48 196.174C1097.12 197.361 1165.28 180.268 1233.92 170.851C1302.4 161.513 1371.2 159.93 1405.6 159.139L1440 158.348V300H1405.6C1371.2 300 1302.4 300 1233.92 300C1165.28 300 1097.12 300 1028.48 300C960 300 891.2 300 822.72 300C754.08 300 685.92 300 617.28 300C548.8 300 480 300 411.52 300C342.88 300 274.72 300 206.08 300C137.6 300 68.8 300 34.4 300H0V219.282Z" fill="#C0272A"/>
</svg>
